<?xml version="1.0" standalone="no"?>
<!DOCTYPE svg PUBLIC "-//W3C//DTD SVG 20010904//EN"
 "http://www.w3.org/TR/2001/REC-SVG-20010904/DTD/svg10.dtd">
<svg version="1.0" xmlns="http://www.w3.org/2000/svg"
 width="700.000000pt" height="700.000000pt" viewBox="0 0 700.000000 700.000000"
 preserveAspectRatio="xMidYMid meet">
<metadata>
Created by potrace 1.14, written by Peter Selinger 2001-2017
</metadata>
<g transform="translate(0.000000,700.000000) scale(0.100000,-0.100000)"
fill="#000000" stroke="none">
<path d="M3295 6990 c-1058 -67 -2002 -585 -2628 -1443 -297 -406 -504 -886
-601 -1392 -80 -415 -80 -894 0 -1310 177 -921 713 -1730 1494 -2252 466 -311
997 -505 1565 -569 200 -22 549 -22 750 0 809 91 1528 437 2100 1010 563 565
913 1295 1001 2091 22 200 22 551 0 750 -131 1168 -815 2172 -1856 2723 -543
287 -1210 431 -1825 392z m614 -255 c1381 -179 2503 -1214 2781 -2566 54 -259
64 -370 64 -669 0 -294 -10 -400 -60 -650 -254 -1266 -1254 -2273 -2520 -2539
-479 -101 -984 -92 -1461 25 -1111 272 -2019 1143 -2342 2246 -93 318 -125
555 -125 918 0 295 10 402 60 654 218 1091 1012 2015 2064 2404 287 106 529
158 905 196 91 9 517 -3 634 -19z"/>
<path d="M3230 6550 c-1066 -101 -1992 -733 -2467 -1684 -203 -405 -306 -815
-320 -1276 -29 -924 358 -1802 1062 -2409 719 -621 1696 -872 2627 -675 909
192 1686 792 2102 1623 217 432 326 891 326 1371 0 1258 -769 2384 -1946 2851
-213 84 -469 150 -715 184 -136 19 -534 27 -669 15z m416 -312 c-20 -96 -12
-189 24 -301 12 -34 65 -152 119 -262 55 -110 109 -231 121 -270 46 -147 35
-338 -28 -496 l-29 -74 -347 -3 c-322 -2 -346 -1 -346 15 0 10 -17 65 -37 123
-32 91 -37 120 -41 220 -2 67 1 139 7 171 26 123 113 250 192 279 l34 12 0 82
c1 197 131 435 275 504 57 27 61 27 56 0z m424 -1538 c0 -73 27 -193 62 -280
51 -124 23 -112 285 -114 259 -2 325 -14 454 -82 139 -73 280 -261 341 -454
20 -64 23 -95 23 -215 -1 -122 -5 -154 -29 -245 -76 -280 -158 -400 -459 -674
-86 -78 -224 -234 -270 -306 -16 -26 -201 -531 -263 -720 -79 -239 -144 -540
-144 -668 0 -27 -3 -64 -6 -81 l-6 -31 -553 0 -552 0 -6 123 c-14 260 -73 480
-298 1097 -78 216 -112 296 -138 330 -107 136 -191 227 -278 301 -116 99 -169
152 -227 228 -157 204 -250 531 -216 756 35 232 204 485 380 569 124 60 194
71 447 71 l223 0 35 78 c37 80 69 206 80 310 l6 57 555 0 554 0 0 -50z"/>
<path d="M2400 3991 c-58 -18 -110 -54 -165 -113 -104 -112 -147 -244 -127
-388 21 -147 69 -238 187 -354 l70 -69 6 164 c7 174 25 275 74 405 27 71 100
212 141 273 13 19 21 38 18 43 -3 4 -23 17 -44 28 -40 21 -112 25 -160 11z"/>
<path d="M4475 3987 c-59 -27 -59 -34 2 -137 132 -224 192 -450 181 -685 -2
-52 -1 -95 2 -95 15 0 169 169 194 213 81 138 92 334 26 471 -37 79 -123 174
-190 210 -63 34 -166 45 -215 23z"/>
</g>
</svg>
