<svg xmlns="http://www.w3.org/2000/svg" fill-rule="evenodd" clip-rule="evenodd" shape-rendering="geometricPrecision" viewBox="0 0 3000 3000">
  <circle cx="1500" cy="1500" r="1500" fill="#40489a"/>
  <path fill="#d64448" d="M1355 932c0-46-38-69-38-176s63-177 107-179c-24-50 28-235 141-261-41 167 125 289 125 446 0 103-29 135-39 171h-295z"/>
  <path fill="#fff" d="M1917 1999c38-48 81-105 130-145 76-60 149-133 185-282s-8-253-97-346c-77-80-229-79-341-67-31-57-53-118-53-195h-472c0 77-22 138-53 195-113-12-265-14-341 67-89 93-133 197-97 346s109 221 185 282c50 39 92 97 130 145 74 216 175 433 175 644h472c0-211 101-428 175-644zm-26-691c47-46 119-22 161 23 48 52 76 113 52 209-16 66-63 111-112 151 2-24 3-47 3-70 0-137-49-229-104-313zm-770 0c-55 83-104 176-104 313 0 23 1 47 3 70-49-40-96-85-112-151-24-97 4-157 52-209 42-45 113-69 161-23z"/>
  <circle cx="1500" cy="1500" r="1354.5" fill="none" stroke="#DEB32A" stroke-width="83"/>
</svg>
