<svg xmlns="http://www.w3.org/2000/svg" viewBox="0 0 97.17 26.76"><title>The Gideons International</title><path d="M120.49 37.87h-1.06v8.92h1.06v-8.92zm-20.58 5.69c0-1.57.9-2.44 2-2.44s2 .87 2 2.44S103 46 101.92 46s-2-.87-2-2.44m-1.12 0a3.14 3.14 0 1 0 6.27 0 3.14 3.14 0 1 0-6.27 0m-1.1-3.23h-1.08v6.45h1.06v-6.45zm0-2.47h-1.08v1.3h1.06v-1.3zm-21.18 2.47h-1v6.45h1.06v-2.86c0-1.64.63-2.61 2.34-2.61v-1.13h-.11a2.35 2.35 0 0 0-2.26 1.52v-1.37zm-16.85 0h-1v6.45h1.06v-3.64a1.81 1.81 0 0 1 1.91-2A1.22 1.22 0 0 1 63 42.42v4.37h1v-4.25c0-1.38-.53-2.36-2.23-2.36a2.25 2.25 0 0 0-2.1 1.17v-1zm-2.6-2.47h-1.18v8.92h1.19v-8.91zm7-2.56h1.06v-4.24c0-1.38-.52-2.36-2.22-2.36a2.18 2.18 0 0 0-2 1.1v-3.41h-8v1h3v7.91H57v-7.91h2.8v7.91h1.06v-3.64a1.81 1.81 0 0 1 1.91-2 1.22 1.22 0 0 1 1.31 1.3v4.37zm1.72 3.09v1.94h-1.1v.94h1.1v4.11c0 1.18.44 1.4 1.54 1.4h.81v-.93h-.47c-.66 0-.8-.09-.8-.57v-4h1.28v-.95h-1.28v-1.94h-1.06zm1.53-6.93a1.85 1.85 0 0 1 3.7 0h-3.7zm0 .94h4.83c.07-1.56-.63-3.7-2.92-3.7a3.1 3.1 0 0 0-3 3.36c.06 2 1 3.4 3.09 3.4a2.6 2.6 0 0 0 2.76-2.2H71a1.56 1.56 0 0 1-1.68 1.26 1.9 1.9 0 0 1-2-2.12m2.38 10.54a1.84 1.84 0 0 1 1.85-1.82 1.86 1.86 0 0 1 1.87 1.82h-3.71zm0 .94h4.83c.07-1.57-.63-3.7-2.92-3.7a3.11 3.11 0 0 0-3 3.36c.06 2 1 3.39 3.1 3.39a2.6 2.6 0 0 0 2.76-2.2H73.4A1.56 1.56 0 0 1 71.72 46a1.9 1.9 0 0 1-2-2.12m13.13-8.57h.75v-4.69h-3.91v1h2.85a2.69 2.69 0 0 1-2.86 2.91c-2 0-3.06-1.7-3.06-3.56s.9-3.78 3.06-3.78a2.41 2.41 0 0 1 2.64 2h1.19c-.34-2.08-1.89-3-3.83-3-2.83 0-4.25 2.25-4.25 4.84a4.28 4.28 0 0 0 4.25 4.5 3.5 3.5 0 0 0 2.86-1.33zm1.06 11.47H85v-4.24c0-1.38-.53-2.36-2.23-2.36a2.25 2.25 0 0 0-2.1 1.17v-1h-1v6.45h1.06v-3.66a1.81 1.81 0 0 1 1.91-2 1.22 1.22 0 0 1 1.31 1.3v4.37zm1.2-19.09h1.06v-1.3h-1.06v1.3zm0 7.62h1.06v-6.46h-1.06v6.46zm5.27 9.23a1.72 1.72 0 0 1-2 1.45 1 1 0 0 1-1.25-.94 1.24 1.24 0 0 1 1.3-1.17 5.46 5.46 0 0 0 1.92-.43v1.09zM89 40.18c-1.43 0-2.67.56-2.74 2.16h1.07c.05-1 .71-1.23 1.61-1.23.68 0 1.44.15 1.44 1.07s-1 .72-2.18.94-2.18.53-2.18 2c0 1.28 1 1.81 2.13 1.81a2.86 2.86 0 0 0 2.27-1 .85.85 0 0 0 .9 1 1.42 1.42 0 0 0 .76-.17v-.82a.89.89 0 0 1-.33.06c-.34 0-.34-.22-.34-.72V42c0-1.51-1.26-1.77-2.42-1.77m3.5-8.1c0 1.21-.55 2.44-2 2.44a2.11 2.11 0 0 1-2-2.39c0-1.26.49-2.5 1.94-2.5s2 1.17 2 2.44m0 3.22h1.06v-8.95h-1.01v3.32a2.47 2.47 0 0 0-2.09-1c-2 0-2.95 1.54-2.95 3.36s1 3.4 3 3.4a2.17 2.17 0 0 0 2.06-1v.87zm3.17 5h-1.24v-1.95H93.3v1.94h-1.1v.94h1.1v4.11c0 1.18.44 1.4 1.53 1.4h.81v-.93h-.47c-.66 0-.8-.09-.8-.57v-4h1.28v-.95zm.24-8.87a1.86 1.86 0 0 1 3.71 0h-3.66zm0 .94h4.84c.06-1.56-.63-3.7-2.92-3.7a3.11 3.11 0 0 0-3 3.36c.06 2 1 3.4 3.1 3.4a2.6 2.6 0 0 0 2.76-2.2h-1.05a1.55 1.55 0 0 1-1.67 1.26 1.9 1.9 0 0 1-2-2.12m10.8-.32c0 1.57-.9 2.44-2 2.44s-2-.87-2-2.44.9-2.44 2-2.44 2 .87 2 2.44m1.12 0a3.14 3.14 0 1 0-6.27 0 3.14 3.14 0 1 0 6.27 0m1.45 8.1a2.24 2.24 0 0 0-2.1 1.17v-1h-1v6.45h1.06v-3.67a1.81 1.81 0 0 1 1.91-2 1.22 1.22 0 0 1 1.31 1.3v4.37h1.07v-4.27c0-1.38-.53-2.36-2.23-2.36m4-4.87h1.07v-4.25c0-1.38-.53-2.36-2.23-2.36a2.24 2.24 0 0 0-2.1 1.18v-1h-1v6.46h1.06v-3.68a1.81 1.81 0 0 1 1.91-2 1.22 1.22 0 0 1 1.31 1.3v4.37zm3.51 9.23a1.73 1.73 0 0 1-2 1.45 1 1 0 0 1-1.25-.94 1.24 1.24 0 0 1 1.3-1.17 5.46 5.46 0 0 0 1.93-.43v1.09zm-1.36-4.36c-1.43 0-2.67.56-2.73 2.16h1.06c.05-1 .71-1.23 1.62-1.23.67 0 1.43.15 1.43 1.07s-1 .72-2.18.94-2.18.53-2.18 2c0 1.28 1 1.81 2.13 1.81a2.88 2.88 0 0 0 2.28-1 .84.84 0 0 0 .89 1 1.41 1.41 0 0 0 .76-.17v-.82a.9.9 0 0 1-.32.06c-.34 0-.34-.22-.34-.72V42c0-1.51-1.26-1.77-2.42-1.77m4.2-9.46h1.06c-.09-1.57-1.22-2-2.64-2-1.12 0-2.41.53-2.41 1.83s1.06 1.59 2.1 1.82 2.11.38 2.11 1.2-.89 1-1.56 1c-.88 0-1.7-.3-1.74-1.25h-1.06c.06 1.6 1.28 2.19 2.73 2.19s2.75-.5 2.75-2c0-1.25-1-1.6-2.1-1.84s-2.11-.36-2.11-1.12.74-.82 1.37-.82a1.3 1.3 0 0 1 1.5 1.08m-85.85 4.27c.29-.55-.85-.45-1.3.05a2.18 2.18 0 0 0 .46 3.12 6.79 6.79 0 0 1 .24-2.11 2.91 2.91 0 0 1 .61-1.06m7.87 3.24a2 2 0 0 0 .33-3.3c-.71-.44-1.1-.31-1.21 0a5.2 5.2 0 0 1 .89 3.28m.14 1.84a4.85 4.85 0 0 0-1.3 2.15 14.31 14.31 0 0 0-1.1 4.32.21.21 0 0 1-.16.23h-4a.22.22 0 0 1-.16-.23 19.93 19.93 0 0 0-1-4.32 4.88 4.88 0 0 0-1.29-2.15c-3.78-3.49-2-7.4 1.77-6.6a.37.37 0 0 0 .42-.39l.21-1.2a.19.19 0 0 1 .23-.13h3.86a.19.19 0 0 1 .23.13l.11 1.22a.37.37 0 0 0 .4.42c3.7-.72 5.52 3.16 1.77 6.6m-3.07-8.7H36c-.69-1.71-.11-2.87.61-3.24A2.35 2.35 0 0 1 38 25.85c.14-.05.12.14 0 .38a2.28 2.28 0 0 0 .43 1.89 3.46 3.46 0 0 1 .29 3.39M49 36.43a11.82 11.82 0 1 0-11.82 11.82A11.82 11.82 0 0 0 49 36.43m.51 0A12.31 12.31 0 1 1 37.2 24.15a12.31 12.31 0 0 1 12.31 12.31m1.07 0A13.38 13.38 0 1 0 37.2 49.84a13.38 13.38 0 0 0 13.38-13.38" style="fill:#fff" transform="translate(-23.82 -23.08)"/></svg>
